<svg width="20" height="20" viewBox="0 0 20 20" fill="none" xmlns="http://www.w3.org/2000/svg">
<path d="M11 14V9L10 8L9 9V14L10 15L11 14Z" fill="#002F34"/>
<path d="M10 5C10.552 5 11 5.448 11 6C11 6.552 10.552 7 10 7C9.448 7 9 6.552 9 6C9 5.448 9.448 5 10 5Z" fill="#002F34"/>
<path fill-rule="evenodd" clip-rule="evenodd" d="M0 10C0 15.514 4.486 20 10 20C15.514 20 20 15.514 20 10C20 4.486 15.514 0 10 0C4.486 0 0 4.486 0 10ZM2 10C2 5.589 5.589 2 10 2C14.411 2 18 5.589 18 10C18 14.411 14.411 18 10 18C5.589 18 2 14.411 2 10Z" fill="#002F34"/>
</svg>
