<svg width="140" height="140" viewBox="0 0 140 140" fill="none" xmlns="http://www.w3.org/2000/svg">
<g id="mode=light">
<g id="Group">
<path id="Fill 1" fill-rule="evenodd" clip-rule="evenodd" d="M130.208 100.504L76.1701 7.6402C76.1196 7.55343 76.027 7.5 75.9265 7.5H64.0975C63.9971 7.5 63.9044 7.55343 63.8539 7.6402L9.81569 100.504C9.60931 100.859 9.5 101.263 9.5 101.674V117.479C9.5 117.635 9.62598 117.761 9.78186 117.761H130.524H130.524V101.674C130.524 101.263 130.415 100.859 130.208 100.504Z" fill="#F8FBCF"/>
<path id="Fill 4" fill-rule="evenodd" clip-rule="evenodd" d="M17.5 109.794V103.395C17.5 103.346 17.5132 103.297 17.5382 103.254L68.5216 15.6392C68.5721 15.5529 68.6642 15.5 68.7642 15.5H71.5735C71.6735 15.5 71.7662 15.5529 71.8162 15.6392L122.799 103.253C122.825 103.296 122.838 103.345 122.838 103.395V109.794C122.838 109.949 122.712 110.074 122.557 110.074H17.7809C17.6255 110.074 17.5 109.949 17.5 109.794L76.7461 41.0833Z" fill="#F8DD3E"/>
<g id="Group 3">
<ellipse id="Oval" cx="70" cy="89.5" rx="22" ry="3.99999" fill="#002F34"/>
<g id="Group 2">
<path id="Fill 10" fill-rule="evenodd" clip-rule="evenodd" d="M79.5196 73.3609C76.3366 73.3609 73.7549 70.7979 73.7549 67.636C73.7549 64.4741 76.3366 61.9119 79.5196 61.9119C82.7026 61.9119 85.2843 64.4741 85.2843 67.636C85.2843 70.7979 82.7026 73.3609 79.5196 73.3609Z" fill="#002F34"/>
<path id="Fill 12" fill-rule="evenodd" clip-rule="evenodd" d="M60.4019 73.3609C57.2189 73.3609 54.6372 70.7979 54.6372 67.636C54.6372 64.4741 57.2189 61.9119 60.4019 61.9119C63.5849 61.9119 66.1666 64.4741 66.1666 67.636C66.1666 70.7979 63.5849 73.3609 60.4019 73.3609Z" fill="#002F34"/>
</g>
</g>
<path id="Combined Shape" fill-rule="evenodd" clip-rule="evenodd" d="M31.4186 132.069H26.6569V117.794H31.4186V132.069ZM113.596 132.069H108.834V117.794H113.596V132.069Z" fill="#CFC980"/>
</g>
</g>
</svg>
