<svg xmlns="http://www.w3.org/2000/svg" width="110" height="80" viewBox="0 0 156 68"><g fill="#D52B1E"><path d="M75.709 1.789C77.713.947 79.801.153 81.999 0c.788.038 1.817.329 1.886 1.242.095 2.235-1.353 4.15-2.455 5.999-1.903 2.812-3.164 6.052-3.514 9.408-.378 3.339.452 6.994 2.819 9.544 2.128 2.28 5.448 3.236 8.51 3.125 3.567-.117 7.09-1.164 10.198-2.874 4.745-2.61 8.542-6.598 11.492-11.01.348-.558 1.084-1.106 1.765-.748.68.313.512 1.151.435 1.735-3.279 6.175-7.78 11.932-13.837 15.747-3.834 2.386-8.35 3.955-12.938 3.807-3.595.154-7.161-.746-10.454-2.108-2.87-1.199-5.488-2.875-8.271-4.242-4.815-2.456-10.274-4.234-15.743-3.698-1.359.215-2.74.275-4.117.19-.787-.105-1.739-.483-1.796-1.377.016-1.18.741-2.215 1.446-3.13 1.646-2.138 3.755-3.867 5.735-5.691-.659 1.342-.969 3.012-.18 4.37.831 1.49 2.646 2.11 4.295 2.188.905.256 1.812-.15 2.728-.138 4.177-.716 8.03-2.718 11.304-5.3 2.298-1.912 4.416-4.258 5.288-7.131.432-1.46.182-3.23-1.092-4.23-1.445-1.13-3.471-1.408-5.253-1.124 1.71-1.102 3.6-1.924 5.458-2.765z"></path><path d="M66.529 9.817c1.24-.304 3.278.023 3.193 1.627-.356 2.313-2.52 3.871-4.508 4.906-1.305.61-2.788 1.083-4.246.797-.72-.13-1.364-.717-1.376-1.457-.008-1.054.643-1.975 1.32-2.743 1.484-1.561 3.46-2.722 5.616-3.13zm28.163 1.35c1.868-.288 4.05.137 5.255 1.68.856 1.034.964 2.431.766 3.694-.864 3.702-4.76 6.379-8.6 6.21-1.465-.068-2.99-.643-3.867-1.839-1.037-1.397-.998-3.316-.296-4.845 1.187-2.602 3.847-4.53 6.742-4.9z"></path><g><path d="M115.023 44.217c.59.018 1.567-.258 1.868.426.027 7.155.005 14.313.012 21.47.025.669-.815.578-1.244.608-.442-.035-1.32.08-1.28-.611-.002-7.123-.007-14.245.003-21.368-.049-.388.353-.502.64-.524zm16.736.527c-.035-.57.653-.522 1.025-.556.48.034 1.138-.115 1.466.35.05 4.422.001 8.85.024 13.273 1.735-1.97 3.442-3.968 5.163-5.952.656-.857 1.838-.656 2.751-.536.585.126.275.86-.026 1.136-1.681 1.786-3.375 3.56-5.068 5.333 1.91 2.633 3.859 5.236 5.758 7.878.314.317.3.962-.231.986-.874.04-2.087.337-2.63-.605-1.905-2.622-3.795-5.256-5.718-7.863-.008 2.64.002 5.282-.005 7.923.039.679-.819.579-1.251.609-.414-.046-1.185.093-1.258-.5 0-7.157.003-14.318 0-21.476zM.01 46.809c-.032-.716.673-1.135 1.286-1.038 2.192.077 4.42-.205 6.58.293 1.712.402 3.29 1.65 3.907 3.414.986 2.8.19 6.417-2.326 8.028-2.024 1.375-4.527 1.2-6.829 1.196-.015 2.532.024 5.066-.018 7.596-.277.552-1.049.368-1.547.414-.394-.033-1.12-.008-1.06-.615.004-6.43-.013-12.86.009-19.288m2.616 1.245c.001 2.796-.004 5.59.003 8.385 1.821-.088 3.921.356 5.44-.985 1.693-1.524 1.838-4.637.293-6.324-1.546-1.51-3.823-.967-5.736-1.076zm82.197-1.162c-.056-.702.586-1.212 1.22-1.12 2.375.094 4.815-.274 7.133.43 1.678.544 3.126 1.94 3.583 3.752.615 2.387.11 5.218-1.683 6.917-2.054 1.997-5.025 1.865-7.63 1.836.003 2.428 0 4.856.003 7.284.005.237-.011.539-.284.594a3.875 3.875 0 01-2.047.006c-.33-.059-.311-.451-.304-.718.01-6.327-.008-12.654.009-18.98m2.624 1.161c.004 2.79-.004 5.583.004 8.374 1.64-.064 3.421.283 4.924-.591 2.583-1.501 2.547-6.378-.357-7.468-1.474-.495-3.05-.259-4.571-.315zm-32.17-.353c.25-.446.85-.316 1.268-.358.4.037 1.03-.063 1.2.43.047 1.177.003 2.358.019 3.537 1.257.001 2.514-.012 3.771.007.36.608.431 1.573-.026 2.136-1.241.116-2.5.015-3.748.05.01 2.768-.01 5.536.01 8.304.036.856.095 1.862.746 2.473.753.56 1.756.397 2.555.03.214-.11.62-.226.658.146.126.728.244 1.885-.63 2.134-1.452.453-3.193.505-4.479-.449-1.117-.884-1.345-2.468-1.366-3.844-.021-2.933.004-5.864-.012-8.796-.723-.055-1.468.09-2.176-.077-.385-.57-.375-1.496.014-2.055.707-.14 1.444-.025 2.163-.058.03-1.202-.042-2.41.033-3.61zM35.373 51.02c1.401-.003 2.866.375 3.964 1.328.658.536.613 1.543.423 2.303-.263.614-.863.075-1.176-.195-1.396-1.212-3.56-1.713-5.133-.59-1.414 1.103-1.731 3.109-1.76 4.845-.028 1.615.129 3.374 1.111 4.688 1.09 1.425 3.18 1.56 4.652.757.736-.328 1.29-.977 2.006-1.333.448-.066.432.58.466.896.073.692-.027 1.493-.649 1.882-2.369 1.728-5.948 1.908-8.174-.178-1.543-1.524-2.017-3.855-2.045-6-.042-2.186.324-4.527 1.684-6.259 1.11-1.442 2.9-2.137 4.631-2.144zm68.774.032c1.9-.182 3.981.13 5.47 1.481 1.54 1.405 2.137 3.621 2.19 5.7.094 2.19-.306 4.524-1.642 6.271-1.088 1.439-2.798 2.24-4.518 2.387-1.887.17-3.954-.151-5.427-1.497-1.404-1.268-2.004-3.24-2.142-5.126-.162-2.22.098-4.603 1.329-6.477 1.055-1.637 2.887-2.597 4.74-2.739m.092 2.21c-2.454.237-3.609 3.02-3.56 5.323.005 1.427.083 2.938.774 4.205 1.372 2.622 5.571 2.55 6.928-.054.835-1.574.877-3.463.692-5.211-.143-1.291-.556-2.662-1.567-3.49-.906-.77-2.145-.919-3.267-.773zm19.759-2.215c1.45-.125 3.042.065 4.238 1.002.374.523.281 1.297.143 1.899-.164.385-.569.111-.802-.03-1.29-.809-2.966-1.192-4.382-.527-1.158.55-1.37 2.435-.335 3.228 1.642 1.348 3.966 1.482 5.444 3.097 1.657 1.934.927 5.4-1.313 6.483-2.127 1.085-4.75.943-6.846-.16-.862-.4-.796-1.59-.59-2.39.201-.435.684-.062.959.093 1.49.977 3.443 1.484 5.102.68 1.18-.538 1.503-2.46.474-3.32-1.487-1.297-3.605-1.423-5.056-2.795-1.593-1.372-1.664-4.14-.298-5.707.837-.946 2.056-1.441 3.262-1.553zm21.888 1.273c1.798-1.148 4-1.503 6.069-1.217 1.149.169 2.336.652 3.056 1.654.798 1.115.938 2.571.93 3.923-.012 3.217.022 6.434-.016 9.65-.272.57-1.075.359-1.578.366-.941-.04-.452-1.288-.566-1.914-1.472 1.71-3.8 2.584-5.95 1.97-1.713-.339-3.14-1.911-3.198-3.776-.212-1.743.664-3.548 2.191-4.3 2.033-1.1 4.39-.965 6.609-.97-.002-1.078.08-2.23-.396-3.223-.441-.886-1.423-1.288-2.33-1.31-1.53-.169-3.01.435-4.315 1.218-.278.142-.715.442-.937.06-.3-.69-.286-1.73.43-2.131m2.446 7.933c-1.29.702-1.499 2.725-.56 3.818.775.863 2.053.937 3.082.629 1.022-.35 1.855-1.14 2.548-1.98.087-1.028.008-2.07.038-3.104-1.702.063-3.548-.25-5.108.637zM18.698 51.135c2.026-.33 4.294-.109 5.953 1.27 1.486 1.241 2.16 3.26 2.3 5.194.183 2.265-.1 4.7-1.38 6.596-1.04 1.569-2.798 2.496-4.586 2.678-1.992.216-4.208-.125-5.725-1.613-1.451-1.422-1.966-3.574-2.038-5.593-.09-2.448.418-5.14 2.188-6.875.904-.884 2.074-1.441 3.288-1.657m.676 2.134c-1.21.153-2.302.984-2.827 2.14-.816 1.748-.804 3.79-.496 5.671.219 1.426 1.05 2.836 2.387 3.343 1.662.599 3.8.289 4.877-1.296 1.097-1.617 1.136-3.74.936-5.64-.146-1.288-.566-2.656-1.584-3.471-.92-.765-2.164-.903-3.293-.747zm44.988-.658c1.672-1.257 3.845-1.656 5.866-1.483 1.425.115 2.968.68 3.732 2.041.662 1.156.724 2.554.723 3.869-.017 3.127.027 6.259-.022 9.385-.312.565-1.118.36-1.642.348-.86-.12-.393-1.28-.506-1.893-1.795 2.135-4.994 2.832-7.357 1.355-1.78-1.095-2.242-3.688-1.42-5.574.53-1.176 1.637-1.936 2.784-2.327 1.819-.637 3.76-.536 5.65-.542.026-1.092.068-2.262-.419-3.26-.473-.936-1.54-1.285-2.489-1.287-1.567-.135-3.035.577-4.371 1.352-1.054.538-1.11-1.486-.529-1.984m2.626 7.771c-1.529.904-1.377 3.695.299 4.332 1.834.772 3.806-.428 4.865-1.983.046-1.008.007-2.02.017-3.029-1.727.06-3.613-.265-5.18.68zM42.516 51.34c2.594-.078 5.197-.006 7.795-.035.347-.007.829-.015.957.416.183.832.11 1.766-.35 2.494-2.05 3.403-4.131 6.784-6.18 10.186 2.046-.005 4.093.003 6.141-.004 1.233-.283 1.236 2.525-.001 2.235-2.688-.008-5.376 0-8.062-.003-.338.027-.714-.165-.78-.54-.123-.792-.08-1.656.361-2.34 2.067-3.41 4.163-6.803 6.231-10.213-2.023-.034-4.057.055-6.073-.044-.524-.477-.52-1.644-.039-2.152z"></path></g></g></svg>
